<svg height="236.613" viewBox="0 0 793.802 236.613" width="793.802" xmlns="http://www.w3.org/2000/svg"><path d="m46.3011 174.32c-4.8304-3.663-7.2456-8.978-7.2456-15.947v-20.971c0-5.629-1.6996-9.939-5.0987-12.932-2.0574-1.831-5.0093-3.283-8.8557-4.355v-8.107c4.3384-1.474 7.4021-3.105 9.1911-4.891 3.1756-3.082 4.7633-7.7949 4.7633-14.1378v-17.9566c0-2.2781.3802-4.6678 1.1405-7.1693 1.3418-4.3328 3.6228-7.7722 6.8431-10.3183 2.9519-2.3227 6.4181-3.8638 10.3987-4.6231 2.4152-.4914 5.8814-.7594 10.3987-.8041v10.6534c-3.7122.804-6.2392 1.8761-7.581 3.2161-2.0574 2.0547-3.0861 5.6505-3.0861 10.7873v15.5446c0 5.0028-.6708 8.9778-2.0126 11.9268-2.281 4.958-6.7536 8.978-13.4177 12.06 6.0379 2.457 10.0968 5.315 12.1765 8.576 2.0798 3.261 3.1644 7.773 3.2538 13.535v16.951c0 4.958 1.2076 8.532 3.6228 10.721 1.3418 1.295 3.6899 2.434 7.0443 3.417v10.653s-4.7633-.134-4.7633-.134c-6.3957-.179-11.9865-2.077-16.7721-5.695z" fill="#333"/><g fill="#d700ab"><path d="m137.952 165.224c-14.134 0-24.935-3.841-32.404-11.524-10.0187-9.425-15.0279-23.004-15.0279-40.737 0-18.0911 5.0092-31.6702 15.0279-40.7378 7.469-7.6829 18.27-11.5244 32.404-11.5244 14.133 0 24.934 3.8415 32.403 11.5244 9.974 9.0676 14.961 22.6467 14.961 40.7378 0 17.733-4.987 31.312-14.961 40.737-7.469 7.683-18.27 11.524-32.403 11.524zm19.522-26.533c4.786-6.03 7.179-14.606 7.179-25.728 0-11.078-2.404-19.6433-7.212-25.6958-4.808-6.0526-11.305-9.0788-19.489-9.0788-8.185 0-14.715 3.0151-19.59 9.0453s-7.313 14.6063-7.313 25.7293c0 11.122 2.438 19.698 7.313 25.728 4.875 6.031 11.405 9.046 19.59 9.046 8.184 0 14.692-3.015 19.522-9.046z"/><path d="m239.255 164.42c-6.038 0-10.89-1.206-14.558-3.618-2.191-1.429-4.562-3.931-7.111-7.504v9.179h-18.718v-98.6271h19.053v35.1091c2.415-3.3947 5.077-5.9855 7.984-7.7722 3.444-2.2334 7.827-3.3501 13.149-3.3501 9.616 0 17.141 3.4618 22.575 10.3853 5.435 6.924 8.152 15.857 8.152 26.801 0 11.346-2.684 20.748-8.051 28.208-5.367 7.459-12.859 11.189-22.475 11.189zm10.466-37.387c0-5.182-.671-9.47-2.012-12.864-2.55-6.433-7.246-9.649-14.089-9.649-6.933 0-11.696 3.149-14.29 9.448-1.342 3.35-2.013 7.682-2.013 12.998 0 6.254 1.387 11.435 4.16 15.544 2.773 4.11 7 6.165 12.68 6.165 4.92 0 8.744-1.988 11.472-5.963 2.728-3.976 4.092-9.202 4.092-15.679z"/><path d="m284.339 89.7798h19.12v80.5362c0 7.371-1.453 12.82-4.361 16.349-2.907 3.529-8.609 5.293-17.107 5.293-.582 0-1.443-.022-2.583-.067-1.141-.045-2.561-.089-4.26-.134v-15.276c1.073.089 1.834.145 2.281.167s.85.034 1.207.034c1.879 0 3.299-.458 4.261-1.374.961-.916 1.442-2.691 1.442-5.327zm0-26.6669h19.12v17.6216h-19.12z"/><path d="m384.234 141.036c-.492 4.333-2.751 8.733-6.776 13.2-6.262 7.102-15.028 10.653-26.299 10.653-9.303 0-17.51-2.993-24.621-8.978-7.112-5.986-10.667-15.723-10.667-29.213 0-12.641 3.209-22.334 9.627-29.079 6.418-6.7449 14.748-10.1173 24.99-10.1173 6.083 0 11.562 1.139 16.437 3.4171s8.9 5.8738 12.076 10.7872c2.862 4.333 4.718 9.358 5.568 15.076.492 3.35.694 8.174.604 14.472h-50.048c.268 7.326 2.572 12.463 6.91 15.411 2.639 1.831 5.814 2.747 9.527 2.747 3.936 0 7.133-1.117 9.593-3.35 1.342-1.206 2.527-2.881 3.556-5.026zm-18.919-22.378c-.313-5.048-1.845-8.878-4.596-11.491-2.75-2.613-6.161-3.92-10.231-3.92-4.428 0-7.86 1.385-10.298 4.154-2.437 2.77-3.969 6.522-4.595 11.257z"/><path d="m461.319 115.643h-19.59c-.358-2.725-1.275-5.182-2.751-7.371-2.147-2.948-5.479-4.422-9.996-4.422-6.441 0-10.846 3.194-13.217 9.582-1.252 3.394-1.878 7.906-1.878 13.534 0 5.36.626 9.671 1.878 12.931 2.281 6.075 6.575 9.113 12.881 9.113 4.473 0 7.649-1.206 9.527-3.618 1.879-2.412 3.019-5.539 3.422-9.381h19.522c-.447 5.807-2.549 11.301-6.306 16.483-5.993 8.353-14.871 12.529-26.634 12.529s-20.417-3.484-25.963-10.452-8.319-16.014-8.319-27.136c0-12.552 3.063-22.312 9.191-29.28 6.127-6.9682 14.58-10.4523 25.359-10.4523 9.169 0 16.672 2.0547 22.508 6.1642 5.837 4.1094 9.292 11.3681 10.366 21.7761z"/><path d="m507.945 148.876v14.271s-9.057.335-9.057.335c-9.034.313-15.207-1.251-18.516-4.69-2.147-2.189-3.221-5.561-3.221-10.117v-44.959h-10.197v-13.6012h10.197v-20.3687h18.919v20.3687h11.875v13.6012h-11.875v38.593c0 2.993.381 4.858 1.141 5.595s3.086 1.106 6.977 1.106c.582 0 1.197-.011 1.845-.034.649-.022 1.286-.056 1.912-.1z"/><path d="m570.606 92.7948c5.725 3.6628 9.012 9.9612 9.862 18.8942h-19.12c-.269-2.456-.962-4.399-2.08-5.829-2.102-2.59-5.68-3.886-10.734-3.886-4.16 0-7.123.648-8.889 1.943-1.767 1.296-2.65 2.814-2.65 4.556 0 2.189.939 3.775 2.817 4.758 1.879 1.027 8.521 2.791 19.926 5.293 7.603 1.786 13.305 4.489 17.107 8.107 3.757 3.663 5.636 8.241 5.636 13.735 0 7.237-2.695 13.144-8.085 17.723-5.389 4.578-13.719 6.867-24.99 6.867-11.495 0-19.981-2.423-25.46-7.27-5.479-4.846-8.219-11.021-8.219-18.526h19.389c.403 3.395 1.275 5.807 2.617 7.237 2.37 2.546 6.753 3.819 13.149 3.819 3.757 0 6.742-.559 8.956-1.675 2.214-1.117 3.321-2.792 3.321-5.025 0-2.145-.894-3.775-2.683-4.892-1.79-1.116-8.431-3.037-19.926-5.762-8.274-2.055-14.111-4.623-17.51-7.705-3.399-3.038-5.099-7.415-5.099-13.133 0-6.744 2.65-12.5401 7.95-17.3866s12.758-7.2697 22.374-7.2697c9.124 0 16.571 1.809 22.341 5.4271z"/></g><path d="m597.508 89.7798h19.121v80.5362c0 7.371-1.454 12.82-4.361 16.349s-8.61 5.293-17.108 5.293c-.581 0-1.442-.022-2.583-.067-1.14-.045-2.56-.089-4.26-.134v-15.276c1.074.089 1.834.145 2.281.167.448.022.85.034 1.208.034 1.878 0 3.298-.458 4.26-1.374s1.442-2.691 1.442-5.327zm0-26.6669h19.121v17.6216h-19.121z" fill="#4758ff"/><path d="m685.193 92.7948c5.725 3.6628 9.012 9.9612 9.862 18.8942h-19.12c-.268-2.456-.962-4.399-2.08-5.829-2.102-2.59-5.68-3.886-10.734-3.886-4.159 0-7.123.648-8.889 1.943-1.767 1.296-2.65 2.814-2.65 4.556 0 2.189.939 3.775 2.818 4.758 1.878 1.027 8.52 2.791 19.925 5.293 7.603 1.786 13.306 4.489 17.107 8.107 3.757 3.663 5.636 8.241 5.636 13.735 0 7.237-2.695 13.144-8.084 17.723-5.39 4.578-13.72 6.867-24.991 6.867-11.494 0-19.981-2.423-25.46-7.27-5.479-4.846-8.218-11.021-8.218-18.526h19.388c.403 3.395 1.275 5.807 2.617 7.237 2.37 2.546 6.753 3.819 13.149 3.819 3.757 0 6.743-.559 8.956-1.675 2.214-1.117 3.321-2.792 3.321-5.025 0-2.145-.894-3.775-2.683-4.892-1.789-1.116-8.431-3.037-19.925-5.762-8.275-2.055-14.111-4.623-17.511-7.705-3.399-3.038-5.098-7.415-5.098-13.133 0-6.744 2.65-12.5401 7.95-17.3866s12.758-7.2697 22.374-7.2697c9.124 0 16.571 1.809 22.34 5.4271z" fill="#4758ff"/><path d="m736.093 76.7646c0-4.9581-.794-8.3306-2.382-10.1173-1.587-1.7867-4.327-3.0821-8.218-3.8861v-10.6534c4.473.0447 7.917.3127 10.332.8041 3.98.7593 7.469 2.3004 10.466 4.6231 2.996 2.3228 5.076 5.1815 6.239 8.5763s1.744 6.3652 1.744 8.9113v17.9566c0 6.3875 1.454 11.0778 4.361 14.0708 1.789 1.786 4.987 3.439 9.594 4.958v8.107c-3.802 1.072-6.687 2.457-8.655 4.154-3.533 3.038-5.3 7.415-5.3 13.133v20.971c0 6.79-2.348 12.05-7.044 15.779-4.696 3.73-10.354 5.684-16.974 5.863 0 0-4.763.134-4.763.134v-10.653c3.355-.983 5.703-2.144 7.044-3.484 2.281-2.234 3.467-5.785 3.556-10.654v-16.951c0-6.343 1.23-11.056 3.69-14.138 2.46-3.037 6.373-5.695 11.74-7.973-5.859-2.859-9.895-6.108-12.109-9.749-2.214-3.64-3.321-8.3863-3.321-14.2378z" fill="#333"/></svg>